<svg xmlns="http://www.w3.org/2000/svg" viewBox="0 0 42 42">
	<path fill="#0023FF" d="M21,0C9.4,0,0,9.4,0,21s9.4,21,21,21s21-9.4,21-21S32.6,0,21,0z M21,31.2c-5.6,0-10.2-4.6-10.2-10.2
	S15.4,10.8,21,10.8S31.2,15.4,31.2,21S26.6,31.2,21,31.2z"/>
	<circle fill="#0017AC" cx="39.3" cy="39.3" r="2.7"/>
	<linearGradient id="SVGID_1_" gradientUnits="userSpaceOnUse" x1="10.83" y1="31.5" x2="21" y2="31.5">
		<stop offset="0" style="stop-color:#FFFFFF;stop-opacity:0"/>
		<stop offset="1" style="stop-color:#A4B1FE"/>
	</linearGradient>
	<path fill="url(#SVGID_1_)" d="M21,31.2V42c-3.7,0-7.2-1-10.2-2.6V21C10.8,26.6,15.4,31.2,21,31.2z"/>
</svg>
